<svg width="45" height="44" viewBox="0 0 45 44" fill="none" xmlns="http://www.w3.org/2000/svg">
<path fill-rule="evenodd" clip-rule="evenodd" d="M42.151 8.90327C43.7471 8.98371 45 10.3013 45 11.8995V18.5106C45 21.6158 42.9542 24.3499 39.9752 25.2261L28.2428 28.6768C24.1773 29.8726 20.1092 30.6154 16.0395 30.9046C12.2209 31.176 8.89262 28.3295 8.56842 24.515C8.0878 18.86 7.58711 14.5764 7.06882 11.674C6.53298 8.67326 5.7901 5.88494 4.84087 3.30857C4.5512 2.52232 3.80211 2 2.9642 2H1C0.447715 2 0 1.55228 0 1C0 0.447715 0.447715 0 1 0H2.9642C4.64003 0 6.13821 1.04465 6.71755 2.61714C7.3471 4.32585 7.88873 6.12021 8.34263 8.0001C19.0575 8.00639 30.3269 8.30747 42.151 8.90327ZM10 39C10 41.7614 12.2386 44 15 44C17.7614 44 20 41.7614 20 39C20 36.2386 17.7614 34 15 34C12.2386 34 10 36.2386 10 39ZM30 39C30 41.7614 32.2386 44 35 44C37.7614 44 40 41.7614 40 39C40 36.2386 37.7614 34 35 34C32.2386 34 30 36.2386 30 39ZM18 39C18 40.6569 16.6569 42 15 42C13.3431 42 12 40.6569 12 39C12 37.3431 13.3431 36 15 36C16.6569 36 18 37.3431 18 39ZM35 42C36.6569 42 38 40.6569 38 39C38 37.3431 36.6569 36 35 36C33.3431 36 32 37.3431 32 39C32 40.6569 33.3431 42 35 42ZM10.5612 24.3456C10.0759 18.6347 9.56883 14.2969 9.03767 11.3224C8.95822 10.8774 8.87433 10.4368 8.78601 10.0005C19.3339 10.0147 30.4221 10.3148 42.0503 10.9007C42.5824 10.9276 43 11.3668 43 11.8995V18.5106C43 20.7286 41.5387 22.6815 39.4108 23.3074L27.6785 26.7581C23.7493 27.9137 19.8228 28.6307 15.8977 28.9096C13.1702 29.1035 10.7928 27.0703 10.5612 24.3456Z" fill="#292F48"/>
</svg>
