<svg width="33" height="32" viewBox="0 0 33 32" fill="none" xmlns="http://www.w3.org/2000/svg">
<path fill-rule="evenodd" clip-rule="evenodd" d="M14.0034 11L13.9901 2.99498C13.9873 1.34038 12.6464 0 10.9927 0C8.7275 0 6.60967 0.150931 4.63902 0.453574C2.48209 0.784827 0.789128 2.47666 0.456444 4.63337C0.149662 6.62218 -0.00107215 8.74505 0.00352185 11.002C0.00351978 12.6566 1.3452 14 3.0009 14H11.006C12.6617 14 14.0034 12.6566 14.0034 11ZM31.5655 4.63307C31.2324 2.47666 29.5394 0.785269 27.3827 0.454209C25.4084 0.151142 23.2865 0 21.0168 0C19.3619 0 18.0196 1.34009 18.0168 2.99498L18.0034 10.9983C18.0034 12.6569 19.3466 14 21.0034 14H29.019C30.6759 14 32.019 12.6569 32.019 11C32.0236 8.74495 31.8727 6.62197 31.5655 4.63307ZM20.0034 11L20.0168 2.99833C20.0177 2.4467 20.4652 2 21.0168 2C23.188 2 25.2089 2.14395 27.0793 2.43105C28.3733 2.62969 29.3891 3.64452 29.5889 4.93837C29.8798 6.82168 30.0234 8.84155 30.019 10.998C30.019 11.5523 29.5713 12 29.019 12H21.0034C20.4511 12 20.0034 11.5523 20.0034 11ZM4.94261 2.4304C3.64845 2.62915 2.63268 3.64425 2.43307 4.93828C2.14255 6.82162 1.99913 8.84153 2.00352 11C2.00352 11.5526 2.45036 12 3.0009 12H11.006C11.5566 12 12.0034 11.5526 12.0034 11.0017L11.9901 2.99833C11.9891 2.4464 11.5426 2 10.9927 2C8.826 2 6.80926 2.14373 4.94261 2.4304ZM27.0793 29.5689C28.3733 29.3703 29.3891 28.3555 29.5889 27.0616C29.8798 25.1783 30.0234 23.1584 30.019 21C30.019 20.4477 29.5713 20 29.019 20H21.0034C20.4511 20 20.0034 20.4477 20.0034 20.9983L20.0168 29.0017C20.0177 29.5533 20.4652 30 21.0168 30C23.188 30 25.2089 29.8561 27.0793 29.5689ZM18.0034 21L18.0168 29.005C18.0196 30.6599 19.3619 32 21.0168 32C23.2865 32 25.4084 31.8489 27.3827 31.5458C29.5394 31.2147 31.2324 29.5233 31.5655 27.3669C31.8727 25.378 32.0236 23.2551 32.019 20.998C32.019 19.3431 30.6759 18 29.019 18H21.0034C19.3466 18 18.0034 19.3431 18.0034 21ZM11.9901 29.0017L12.0034 21C12.0034 20.4474 11.5566 20 11.006 20H3.0009C2.45036 20 2.00352 20.4474 2.00352 21.002C1.99913 23.1585 2.14255 25.1784 2.43307 27.0617C2.63268 28.3557 3.64845 29.3708 4.94261 29.5696C6.80926 29.8563 8.826 30 10.9927 30C11.5426 30 11.9891 29.5536 11.9901 29.0017ZM0.456444 27.3666C0.789128 29.5233 2.48209 31.2152 4.63902 31.5464C6.60967 31.8491 8.7275 32 10.9927 32C12.6464 32 13.9873 30.6596 13.9901 29.005L14.0034 21.0017C14.0034 19.3434 12.6617 18 11.006 18H3.0009C1.3452 18 0.00351978 19.3434 0.00351978 21C-0.00107215 23.2549 0.149662 25.3778 0.456444 27.3666Z" fill="#292F48"/>
</svg>
