<svg width="40" height="42" viewBox="0 0 40 42" fill="none" xmlns="http://www.w3.org/2000/svg">
<path fill-rule="evenodd" clip-rule="evenodd" d="M17.0267 1.55915L2.76666 15.8192C1.33026 17.2556 0.422036 19.1357 0.189686 21.1538C0.0628757 22.2552 0 23.5366 0 25.0001C0 27.4601 0.177927 30.9716 0.533263 35.5426C0.816583 39.1872 3.85663 42.0001 7.51221 42.0001L12.4361 42.0001C13.3999 42.0001 13.9134 41.9009 14.4484 41.6148C14.9486 41.3473 15.3472 40.9487 15.6147 40.4485C15.9008 39.9135 16 39.4 16 38.4362V26.8459C16 25.7777 16.0734 25.3973 16.2825 25.0064C16.4508 24.6918 16.6917 24.4509 17.0063 24.2826C17.3973 24.0735 17.7776 24.0001 18.8458 24.0001H21.1542C22.2224 24.0001 22.6027 24.0735 22.9937 24.2826C23.3083 24.4509 23.5492 24.6918 23.7175 25.0064C23.9266 25.3973 24 25.7777 24 26.8459V38.4362C24 39.4 24.0992 39.9135 24.3853 40.4485C24.6528 40.9487 25.0514 41.3473 25.5516 41.6148C26.0866 41.9009 26.6001 42.0001 27.5639 42.0001H32.4666C36.1309 42.0001 39.175 39.1743 39.4473 35.5202C39.7912 30.904 39.9634 27.4001 39.9634 25.0001C39.9634 23.5184 39.8979 22.2162 39.7658 21.0913C39.5297 19.0808 38.6226 17.2085 37.1912 15.7771L22.9733 1.55915C22.1481 0.733971 21.6395 0.390013 20.9583 0.183542C20.327 -0.00779533 19.673 -0.00779533 19.0417 0.183542C18.3605 0.390013 17.8519 0.733971 17.0267 1.55915ZM2.17656 21.3825C2.35728 19.8129 3.06367 18.3506 4.18088 17.2334L18.4409 2.97337C19.0526 2.36168 19.2981 2.19569 19.6218 2.09756C19.8748 2.02087 20.1252 2.02087 20.3782 2.09756C20.7019 2.19569 20.9474 2.36168 21.5591 2.97337L35.777 17.1913C36.8903 18.3046 37.5958 19.7608 37.7794 21.3246C37.9017 22.3659 37.9634 23.5918 37.9634 25.0001C37.9634 27.3407 37.7934 30.8006 37.4528 35.3716C37.2584 37.9817 35.0839 40.0001 32.4666 40.0001H27.5639C26.902 40.0001 26.7005 39.9612 26.4948 39.8511C26.3431 39.77 26.2301 39.657 26.1489 39.5053C26.0389 39.2996 26 39.0981 26 38.4362V26.8459C26 25.4757 25.8663 24.7835 25.4811 24.0632C25.1265 23.4001 24.6 22.8736 23.9369 22.519C23.2166 22.1338 22.5244 22.0001 21.1542 22.0001H18.8458C17.4756 22.0001 16.7834 22.1338 16.0631 22.519C15.4 22.8736 14.8735 23.4001 14.5189 24.0632C14.1337 24.7835 14 25.4757 14 26.8459V38.4362C14 39.0981 13.9611 39.2996 13.8511 39.5053C13.7699 39.657 13.6569 39.77 13.5052 39.8511C13.2995 39.9612 13.098 40.0001 12.4361 40.0001L7.51221 40.0001C4.90108 40.0001 2.72962 37.9909 2.52725 35.3876C2.17558 30.8638 2 27.3986 2 25.0001C2 23.6084 2.05921 22.4018 2.17656 21.3825Z" fill="black"/>
</svg>
