<svg width="34" height="34" viewBox="0 0 34 34" fill="none" xmlns="http://www.w3.org/2000/svg">
<path d="M23.7365 0.333008H10.2636C4.78803 0.333008 0.333374 4.78766 0.333374 10.2632V23.7362C0.333374 29.2117 4.78803 33.6663 10.2636 33.6663H23.7365C29.2121 33.6663 33.6667 29.2117 33.6667 23.7362V10.2632C33.6666 4.78766 29.212 0.333008 23.7365 0.333008ZM30.3134 23.7362C30.3134 27.3684 27.3688 30.313 23.7365 30.313H10.2636C6.63129 30.313 3.68671 27.3684 3.68671 23.7362V10.2632C3.68671 6.63087 6.63129 3.68634 10.2636 3.68634H23.7365C27.3688 3.68634 30.3134 6.63087 30.3134 10.2632V23.7362Z" fill="url(#paint0_linear_2927_2047)"/>
<path d="M17 8.37891C12.2462 8.37891 8.37878 12.2464 8.37878 17C8.37878 21.7537 12.2462 25.6212 17 25.6212C21.7537 25.6212 25.6212 21.7538 25.6212 17C25.6212 12.2463 21.7537 8.37891 17 8.37891ZM17 22.2679C14.0906 22.2679 11.7321 19.9095 11.7321 17.0001C11.7321 14.0907 14.0907 11.7322 17 11.7322C19.9093 11.7322 22.2678 14.0907 22.2678 17.0001C22.2678 19.9094 19.9093 22.2679 17 22.2679Z" fill="url(#paint1_linear_2927_2047)"/>
<path d="M25.6378 10.5086C26.7787 10.5086 27.7036 9.58368 27.7036 8.44277C27.7036 7.30185 26.7787 6.37695 25.6378 6.37695C24.4969 6.37695 23.572 7.30185 23.572 8.44277C23.572 9.58368 24.4969 10.5086 25.6378 10.5086Z" fill="url(#paint2_linear_2927_2047)"/>
<defs>
<linearGradient id="paint0_linear_2927_2047" x1="17" y1="33.5693" x2="17" y2="0.591914" gradientUnits="userSpaceOnUse">
<stop stop-color="#E09B3D"/>
<stop offset="0.3" stop-color="#C74C4D"/>
<stop offset="0.6" stop-color="#C21975"/>
<stop offset="1" stop-color="#7024C4"/>
</linearGradient>
<linearGradient id="paint1_linear_2927_2047" x1="17" y1="33.5697" x2="17" y2="0.592332" gradientUnits="userSpaceOnUse">
<stop stop-color="#E09B3D"/>
<stop offset="0.3" stop-color="#C74C4D"/>
<stop offset="0.6" stop-color="#C21975"/>
<stop offset="1" stop-color="#7024C4"/>
</linearGradient>
<linearGradient id="paint2_linear_2927_2047" x1="25.6378" y1="33.5689" x2="25.6378" y2="0.591469" gradientUnits="userSpaceOnUse">
<stop stop-color="#E09B3D"/>
<stop offset="0.3" stop-color="#C74C4D"/>
<stop offset="0.6" stop-color="#C21975"/>
<stop offset="1" stop-color="#7024C4"/>
</linearGradient>
</defs>
</svg>
