<svg width="20" height="21" viewBox="0 0 20 21" fill="none" xmlns="http://www.w3.org/2000/svg">
<path d="M10 2.16602C5.39699 2.16602 1.66667 5.89665 1.66667 10.4993C1.66667 15.1024 5.3973 18.8327 10 18.8327C14.603 18.8327 18.3333 15.102 18.3333 10.4993C18.3333 5.89634 14.6027 2.16602 10 2.16602Z" fill="#1F1F1F"/>
<path d="M2.42424 10.4996C2.42424 14.6842 5.81569 18.0753 10 18.0753C14.1846 18.0753 17.5758 14.6839 17.5758 10.4996C17.5758 6.31499 14.1843 2.92383 10 2.92383C5.8154 2.92383 2.42424 6.31527 2.42424 10.4996Z" fill="white"/>
<path d="M6.96971 8.22757C6.96971 6.55494 8.32844 5.19727 10 5.19727C11.6726 5.19727 13.0303 6.55599 13.0303 8.22757C13.0303 9.9002 11.6716 11.2579 10 11.2579C8.32738 11.2579 6.96971 9.89914 6.96971 8.22757Z" stroke="black"/>
<path d="M4.39798 16.5495C4.60313 16.5904 4.80262 16.4573 4.84355 16.2521L5.13807 14.7758C5.30303 13.9489 5.99477 13.3306 6.83492 13.2592C7.67292 13.1879 8.72838 13.1521 9.99997 13.1521C11.2716 13.1521 12.327 13.1879 13.165 13.2592C14.0052 13.3306 14.6969 13.9489 14.8619 14.7758L15.1564 16.2521C15.1973 16.4573 15.3968 16.5904 15.602 16.5495C15.8071 16.5085 15.9403 16.3091 15.8993 16.1039L15.6048 14.6276C15.3739 13.4699 14.4054 12.6043 13.2292 12.5043C12.3673 12.431 11.2914 12.3945 9.99997 12.3945C8.70856 12.3945 7.63258 12.431 6.77072 12.5043C5.59451 12.6043 4.62607 13.4699 4.39513 14.6276L4.10061 16.1039C4.05969 16.3091 4.19282 16.5085 4.39798 16.5495Z" fill="#1F1F1F"/>
</svg>
