<svg width="24" height="24" viewBox="0 0 24 24" fill="none" xmlns="http://www.w3.org/2000/svg">
<path fill-rule="evenodd" clip-rule="evenodd" d="M14.0784 3.93849C14.004 2.85547 13.1019 2 12 2C10.8979 2 9.99561 2.85583 9.92158 3.93918C9.41092 4.08143 9.02122 4.20927 8.74812 4.32512C8.50009 4.43033 8.17503 4.59817 7.76906 4.82982C6.95066 4.1168 5.70803 4.14984 4.92893 4.92893C4.14969 5.70817 4.11679 6.95113 4.83023 7.76953C4.58565 8.19991 4.40948 8.54429 4.3005 8.80679C4.19228 9.06745 4.07236 9.43769 3.93854 9.92162C2.8555 9.99597 2 10.8981 2 12C2 13.1022 2.85587 14.0044 3.93924 14.0784C4.08225 14.5915 4.2108 14.9829 4.32734 15.2571C4.43221 15.5038 4.5993 15.8272 4.82979 16.231C4.1168 17.0494 4.14985 18.292 4.92893 19.0711C5.70823 19.8504 6.95132 19.8832 7.76971 19.1696C8.21004 19.4194 8.56226 19.5989 8.83066 19.7094C9.08623 19.8145 9.44855 19.9313 9.92164 20.0617C9.99611 21.1446 10.8982 22 12 22C13.102 22 14.0042 21.1443 14.0784 20.0611C14.5752 19.9233 14.9548 19.7996 15.2215 19.6877C15.477 19.5805 15.8121 19.4083 16.2307 19.17C17.0491 19.8832 18.2919 19.8502 19.0711 19.0711C19.8504 18.2917 19.8832 17.0485 19.1694 16.2301C19.4255 15.7778 19.6089 15.4162 19.7211 15.1407C19.8227 14.8912 19.9356 14.5384 20.062 14.0783C21.1448 14.0037 22 13.1017 22 12C22 10.8982 21.1447 9.99619 20.0619 9.92165C19.9333 9.45451 19.8183 9.09652 19.7147 8.84374C19.6035 8.5721 19.4222 8.21556 19.1695 7.76982C19.8832 6.95143 19.8504 5.70827 19.0711 4.92893C18.2918 4.14968 17.0488 4.11679 16.2304 4.83026C15.7982 4.5847 15.4523 4.4079 15.1887 4.29864C14.929 4.191 14.5603 4.07168 14.0784 3.93849ZM10.2739 4.70584C10.555 4.62926 10.7501 4.37399 10.7501 4.08265C10.7501 3.39229 11.3097 2.83265 12.0001 2.83265C12.6904 2.83265 13.2501 3.39229 13.2501 4.08265C13.2501 4.37427 13.4456 4.62966 13.7272 4.7057C14.2436 4.84519 14.6262 4.96683 14.8697 5.06778C15.1177 5.17056 15.4745 5.35532 15.9348 5.62049C16.188 5.76631 16.5075 5.72409 16.7141 5.5175C17.2023 5.02935 17.9937 5.02935 18.4819 5.5175C18.9701 6.00566 18.9701 6.79711 18.4819 7.28527C18.2754 7.49177 18.233 7.8111 18.3785 8.0643C18.6504 8.53726 18.8393 8.90398 18.9437 9.15887C19.041 9.39657 19.1586 9.76926 19.2938 10.2717C19.3696 10.5535 19.625 10.7493 19.9168 10.7493C20.6071 10.7493 21.1668 11.309 21.1668 11.9993C21.1668 12.6897 20.6071 13.2493 19.9168 13.2493C19.6249 13.2493 19.3694 13.4453 19.2938 13.7271C19.1607 14.2229 19.045 14.5909 18.9494 14.8257C18.8442 15.084 18.6534 15.4554 18.3784 15.9345C18.233 16.1877 18.2755 16.5069 18.4819 16.7134C18.9701 17.2015 18.9701 17.993 18.4819 18.4811C17.9937 18.9693 17.2023 18.9693 16.7141 18.4811C16.5074 18.2744 16.1877 18.2324 15.9346 18.3785C15.4871 18.6369 15.1402 18.8175 14.8992 18.9186C14.6497 19.0232 14.2571 19.149 13.7267 19.2929C13.4454 19.3692 13.2501 19.6245 13.2501 19.916C13.2501 20.6063 12.6904 21.166 12.0001 21.166C11.3097 21.166 10.7501 20.6063 10.7501 19.916C10.7501 19.6243 10.5544 19.3688 10.2727 19.293C9.76463 19.1561 9.38794 19.0368 9.14787 18.9381C8.89578 18.8343 8.53304 18.6471 8.06517 18.3779C7.81199 18.2323 7.49258 18.2746 7.28604 18.4811C6.79789 18.9693 6.00643 18.9693 5.51827 18.4811C5.03012 17.993 5.03012 17.2015 5.51827 16.7134C5.72507 16.5066 5.767 16.1866 5.62047 15.9335C5.36947 15.4999 5.19358 15.1639 5.09436 14.9305C4.98563 14.6746 4.85535 14.2711 4.70662 13.7254C4.63004 13.4443 4.37476 13.2493 4.08342 13.2493C3.39306 13.2493 2.83342 12.6897 2.83342 11.9993C2.83342 11.309 3.39306 10.7493 4.08342 10.7493C4.37503 10.7493 4.63041 10.5538 4.70649 10.2723C4.84657 9.754 4.96877 9.37 5.07022 9.12564C5.17278 8.87862 5.35697 8.52314 5.6212 8.0646C5.76708 7.81143 5.72488 7.49187 5.51827 7.28527C5.03012 6.79711 5.03012 6.00566 5.51827 5.5175C6.00643 5.02935 6.79789 5.02935 7.28604 5.5175C7.49282 5.72428 7.81278 5.76624 8.06588 5.61976C8.50146 5.36767 8.83908 5.1911 9.07364 5.0916C9.32853 4.98347 9.73049 4.85386 10.2739 4.70584ZM12 17C9.23858 17 7 14.7614 7 12C7 9.23858 9.23858 7 12 7C14.7614 7 17 9.23858 17 12C17 14.7614 14.7614 17 12 17ZM16.1668 11.9993C16.1668 14.3005 14.3013 16.166 12.0001 16.166C9.6989 16.166 7.83342 14.3005 7.83342 11.9993C7.83342 9.69813 9.6989 7.83265 12.0001 7.83265C14.3013 7.83265 16.1668 9.69813 16.1668 11.9993Z" fill="#1F1F1F"/>
</svg>
